<?xml version="1.0" encoding="UTF-8" standalone="no"?> <!-- Created with Vectornator for iOS (http://vectornator.io/) --><!DOCTYPE svg PUBLIC "-//W3C//DTD SVG 1.1//EN" "http://www.w3.org/Graphics/SVG/1.1/DTD/svg11.dtd">
<svg height="100%" style="fill-rule:nonzero;clip-rule:evenodd;stroke-linecap:round;stroke-linejoin:round;" xmlns:xlink="http://www.w3.org/1999/xlink" xmlns="http://www.w3.org/2000/svg" xml:space="preserve" width="100%" xmlns:vectornator="http://vectornator.io" version="1.1" viewBox="0 0 100 125">
<metadata>
<vectornator:setting key="DimensionsVisible" value="1"/>
<vectornator:setting key="PencilOnly" value="1"/>
<vectornator:setting key="SnapToPoints" value="0"/>
<vectornator:setting key="OutlineMode" value="0"/>
<vectornator:setting key="CMYKEnabledKey" value="0"/>
<vectornator:setting key="RulersVisible" value="1"/>
<vectornator:setting key="SnapToEdges" value="0"/>
<vectornator:setting key="GuidesVisible" value="1"/>
<vectornator:setting key="DisplayWhiteBackground" value="0"/>
<vectornator:setting key="doHistoryDisabled" value="0"/>
<vectornator:setting key="SnapToGuides" value="1"/>
<vectornator:setting key="TimeLapseWatermarkDisabled" value="0"/>
<vectornator:setting key="Units" value="Pixels"/>
<vectornator:setting key="DynamicGuides" value="0"/>
<vectornator:setting key="IsolateActiveLayer" value="0"/>
<vectornator:setting key="SnapToGrid" value="0"/>
</metadata>
<defs/>
<g id="Layer 1" vectornator:layerName="Layer 1">
<g opacity="1">
<g opacity="1">
<path d="M4.17233e-07+47.2222L77.7778+47.2222L77.7778+125L4.17233e-07+125L4.17233e-07+47.2222Z" opacity="1" fill="#ff9800"/>
<path d="M30.5556+47.2222L47.2222+47.2222L47.2222+61.1111L30.5556+61.1111L30.5556+47.2222Z" opacity="1" fill="#ffb74d"/>
<path d="M77.7778+47.2222L100+25L100+99.6528L77.7778+125L77.7778+47.2222Z" opacity="1" fill="#f57c00"/>
<path d="M4.17233e-07+47.2222L27.7778+25L100+25L77.7778+47.2222L4.17233e-07+47.2222Z" opacity="1" fill="#ffcc80"/>
<path d="M48.6111+69.4444L29.1667+69.4444C26.8667+69.4444+25+67.5778+25+65.2778C25+62.9778+26.8667+61.1111+29.1667+61.1111L48.6111+61.1111C50.9111+61.1111+52.7778+62.9778+52.7778+65.2778C52.7778+67.5778+50.9111+69.4444+48.6111+69.4444" opacity="1" fill="#ab5600"/>
<path d="M47.2222+47.2222L30.5556+47.2222L55.5556+25L72.2222+25L47.2222+47.2222Z" opacity="1" fill="#ffe0b2"/>
</g>
<g opacity="1">
<path d="M53.7568+33.5879C53.2568+33.5879+52.8568+33.1879+52.7568+32.6879L51.7568+24.7879C51.6568+24.2879+52.0568+23.7879+52.6568+23.6879C53.1568+23.5879+53.6568+23.9879+53.7568+24.5879L54.7568+32.4879C54.8568+32.9879+54.4568+33.4879+53.8568+33.5879C53.8568+33.5879+53.8568+33.5879+53.7568+33.5879Z" opacity="1" fill="#5d4037"/>
<path d="M58.7568+34.5879C58.5568+34.5879+58.4568+34.5879+58.3568+34.4879C56.5568+33.5879+53.7568+33.5879+53.7568+33.5879L51.7568+33.5879C51.1568+33.5879+50.7568+33.1879+50.7568+32.5879C50.7568+31.9879+51.1568+31.5879+51.7568+31.5879L53.7568+31.5879C53.8568+31.5879+57.0568+31.5879+59.1568+32.6879C59.6568+32.8879+59.8568+33.4879+59.5568+33.9879C59.4568+34.3879+59.0568+34.5879+58.7568+34.5879Z" opacity="1" fill="#5d4037"/>
<path d="M51.7568+34.4879C51.2568+34.4879+50.8568+34.0879+50.7568+33.5879L49.7568+25.6879C49.6568+25.1879+50.0568+24.6879+50.6568+24.5879C51.1568+24.4879+51.6568+24.8879+51.7568+25.4879L52.7568+33.3879C52.8568+33.8879+52.4568+34.3879+51.8568+34.4879C51.8568+34.4879+51.8568+34.4879+51.7568+34.4879Z" opacity="1" fill="#795548"/>
<path d="M56.7568+35.5879C56.5568+35.5879+56.4568+35.5879+56.3568+35.4879C54.5568+34.5879+51.7568+34.5879+51.7568+34.5879L49.7568+34.5879C49.1568+34.5879+48.7568+34.1879+48.7568+33.5879C48.7568+32.9879+49.1568+32.5879+49.7568+32.5879L51.7568+32.5879C51.8568+32.5879+55.0568+32.5879+57.1568+33.6879C57.6568+33.8879+57.8568+34.4879+57.5568+34.9879C57.4568+35.3879+57.0568+35.5879+56.7568+35.5879Z" opacity="1" fill="#795548"/>
<path d="M47.7568+16.5879C47.7568+16.5879+54.7568+16.5879+57.7568+13.5879C59.6568+11.6879+59.7568+8.48788+57.7568+6.48788C55.7568+4.48788+52.6568+4.48788+50.6568+6.48788C47.2568+10.0879+47.7568+16.5879+47.7568+16.5879Z" opacity="1" fill="#ffc107"/>
<path d="M60.5568+25.5879C56.6568+29.4879+43.6568+30.5879+43.6568+30.5879C43.6568+30.5879+44.7568+18.6879+49.1568+14.1879C52.2568+11.0879+57.4568+11.0879+60.5568+14.1879C63.7568+17.3879+63.7568+22.4879+60.5568+25.5879Z" opacity="1" fill="#ffc107"/>
<path d="M59.0568+8.58788L62.2568+5.08788L57.9568+6.68788L56.5568+9.48788L59.2568+10.7879L63.3568+9.08788L59.0568+8.58788Z" opacity="1" fill="#455a64"/>
<path d="M53.3568+7.28788C53.4568+7.48788+53.4568+7.68788+53.4568+7.88788C53.4568+8.68788+52.7568+9.38788+51.9568+9.38788C51.7568+9.38788+51.5568+9.38788+51.3568+9.28788C51.5568+9.78788+52.0568+10.1879+52.6568+10.1879C53.4568+10.1879+54.1568+9.48788+54.1568+8.68788C54.2568+7.98788+53.8568+7.48788+53.3568+7.28788Z" opacity="1" fill="#795548"/>
<path d="M70.8568-0.41212C70.2568-0.41212+69.1568-0.41212+69.1568+0.18788L69.1568+5.88788C69.1568+5.88788+68.9568+5.78788+68.3568+5.78788C67.1568+5.88788+66.2568+6.78788+66.2568+7.78788C66.2568+8.68788+67.1568+9.28788+68.3568+9.08788C69.4568+8.88788+70.3568+8.08788+70.3568+7.18788C70.3568+7.18788+70.3568+2.88788+70.3568+2.48788C70.3568+2.08788+70.6568+1.88788+70.8568+1.88788C74.5568+1.88788+74.2568+3.98788+74.2568+3.98788C74.2568+3.98788+74.9568-0.41212+70.8568-0.41212Z" opacity="1" fill="#ff1744"/>
<path d="M54.5568+22.8879C52.5568+24.8879+48.3568+26.9879+42.7568+28.0879C44.3568+21.6879+45.8568+18.1879+47.8568+16.1879C49.8568+14.1879+52.9568+14.0879+54.7568+15.8879C56.6568+17.7879+56.4568+20.8879+54.5568+22.8879Z" opacity="1" fill="#90a4ae"/>
<path d="M43.7568+30.5879C43.7568+30.5879+43.7568+30.0879+43.8568+29.2879L36.2568+31.5879C36.2568+36.5879+42.2568+35.5879+42.2568+35.5879L45.2568+30.5879L45.3568+30.3879C44.3568+30.4879+43.7568+30.5879+43.7568+30.5879ZM45.3568+20.1879C44.4568+22.1879+43.6568+24.7879+42.7568+28.0879C48.2568+26.8879+52.5568+24.7879+54.5568+22.8879C55.5568+21.8879+56.0568+20.6879+56.1568+19.3879C51.4568+18.5879+47.7568+19.2879+45.3568+20.1879Z" opacity="1" fill="#607d8b"/>
<path d="M53.2568+19.0879C53.0568+19.2879+52.9568+19.4879+52.7568+19.6879C51.1568+21.2879+47.9568+22.9879+43.9568+24.1879C43.7568+24.8879+43.5568+25.4879+43.3568+26.2879C48.2568+25.0879+51.9568+23.1879+53.7568+21.3879C54.3568+20.7879+54.7568+19.9879+55.0568+19.2879C54.3568+19.1879+53.7568+19.0879+53.2568+19.0879ZM44.5568+22.2879C47.2568+21.3879+49.4568+20.2879+50.9568+19.0879C48.6568+19.1879+46.7568+19.6879+45.3568+20.1879C45.0568+20.7879+44.7568+21.4879+44.5568+22.2879Z" opacity="1" fill="#37474f"/>
</g>
</g>
</g>
</svg>
