<?xml version="1.0" encoding="UTF-8" standalone="no"?> <!-- Created with Vectornator for iOS (http://vectornator.io/) --><!DOCTYPE svg PUBLIC "-//W3C//DTD SVG 1.1//EN" "http://www.w3.org/Graphics/SVG/1.1/DTD/svg11.dtd">
<svg height="100%" style="fill-rule:nonzero;clip-rule:evenodd;stroke-linecap:round;stroke-linejoin:round;" xmlns:xlink="http://www.w3.org/1999/xlink" xmlns="http://www.w3.org/2000/svg" xml:space="preserve" width="100%" xmlns:vectornator="http://vectornator.io" version="1.1" viewBox="0 0 400 400">
<metadata>
<vectornator:setting key="DimensionsVisible" value="1"/>
<vectornator:setting key="PencilOnly" value="1"/>
<vectornator:setting key="SnapToPoints" value="0"/>
<vectornator:setting key="OutlineMode" value="0"/>
<vectornator:setting key="CMYKEnabledKey" value="0"/>
<vectornator:setting key="RulersVisible" value="1"/>
<vectornator:setting key="SnapToEdges" value="0"/>
<vectornator:setting key="GuidesVisible" value="1"/>
<vectornator:setting key="DisplayWhiteBackground" value="0"/>
<vectornator:setting key="doHistoryDisabled" value="0"/>
<vectornator:setting key="SnapToGuides" value="1"/>
<vectornator:setting key="TimeLapseWatermarkDisabled" value="0"/>
<vectornator:setting key="Units" value="Pixels"/>
<vectornator:setting key="DynamicGuides" value="0"/>
<vectornator:setting key="IsolateActiveLayer" value="0"/>
<vectornator:setting key="SnapToGrid" value="0"/>
</metadata>
<defs/>
<g id="Layer 1" vectornator:layerName="Layer 1">
<g opacity="1">
<path d="M121.951+117.073L278.049+117.073L278.049+292.683L121.951+292.683L121.951+117.073Z" opacity="1" fill="#bf360c"/>
<path d="M356.098+400L43.9024+400C43.9024+292.546+151.22+273.171+151.22+273.171L248.78+273.171C248.78+273.171+356.098+292.927+356.098+400" opacity="1" fill="#b3e5fc"/>
<path d="M200+331.707C178.605+331.707+151.22+273.171+151.22+273.171L151.22+214.634L248.78+214.634L248.78+273.171C248.78+273.171+221.385+331.707+200+331.707" opacity="1" fill="#ff9800"/>
<path d="M287.805+107.317C287.805+32.8293+112.195+58.8195+112.195+107.317L112.195+175.61C112.195+224.107+151.493+263.415+200+263.415C248.498+263.415+287.805+224.107+287.805+175.61L287.805+107.317Z" opacity="1" fill="#ffb74d"/>
<path d="M200+9.75609C140.732+9.75609+53.6585+42.9659+53.6585+236.937L121.951+282.927L121.951+156.098L239.024+87.8049L278.049+136.585L278.049+282.927L346.341+224.39C346.341+185.122+339.766+29.2683+239.024+29.2683L229.268+9.75609L200+9.75609Z" opacity="1" fill="#ff5722"/>
<path d="M200+341.463C156.878+341.463+151.22+273.171+151.22+273.171C151.22+273.171+175.678+312.195+200+312.195C224.322+312.195+248.78+273.171+248.78+273.171C248.78+273.171+243.122+341.463+200+341.463" opacity="1" fill="#ffb74d"/>
<path d="M229.268+175.61C229.268+180.985+233.639+185.366+239.024+185.366C244.41+185.366+248.78+180.985+248.78+175.61C248.78+170.234+244.41+165.854+239.024+165.854C233.639+165.854+229.268+170.234+229.268+175.61M151.22+175.61C151.22+180.985+155.59+185.366+160.976+185.366C166.361+185.366+170.732+180.985+170.732+175.61C170.732+170.234+166.361+165.854+160.976+165.854C155.59+165.854+151.22+170.234+151.22+175.61" opacity="1" fill="#784719"/>
<path d="M278.049+19.5122C278.049+19.5122+248.78-4.76837e-06+200-4.76837e-06C151.22-4.76837e-06+121.951+19.5122+121.951+19.5122L121.951+117.073C121.951+117.073+151.22+97.561+200+97.561C248.78+97.561+278.049+117.073+278.049+117.073L278.049+19.5122Z" opacity="1" fill="#b3e5fc"/>
<path d="M190.244+19.5122L209.756+19.5122L209.756+78.0488L190.244+78.0488L190.244+19.5122Z" opacity="1" fill="#f44336"/>
<path d="M170.732+39.0244L229.268+39.0244L229.268+58.5366L170.732+58.5366L170.732+39.0244Z" opacity="1" fill="#f44336"/>
<path d="M121.951+117.073L278.049+117.073L278.049+292.683L121.951+292.683L121.951+117.073Z" opacity="1" fill="#bf360c"/>
<path d="M356.098+400L43.9024+400C43.9024+292.546+151.22+273.171+151.22+273.171L248.78+273.171C248.78+273.171+356.098+292.927+356.098+400" opacity="1" fill="#b3e5fc"/>
<path d="M200+331.707C178.605+331.707+151.22+273.171+151.22+273.171L151.22+214.634L248.78+214.634L248.78+273.171C248.78+273.171+221.385+331.707+200+331.707" opacity="1" fill="#ff9800"/>
<path d="M287.805+107.317C287.805+32.8293+112.195+58.8195+112.195+107.317L112.195+175.61C112.195+224.107+151.493+263.415+200+263.415C248.498+263.415+287.805+224.107+287.805+175.61L287.805+107.317Z" opacity="1" fill="#ffb74d"/>
<path d="M200+9.75609C140.732+9.75609+53.6585+42.9659+53.6585+236.937L121.951+282.927L121.951+156.098L239.024+87.8049L278.049+136.585L278.049+282.927L346.341+224.39C346.341+185.122+339.766+29.2683+239.024+29.2683L229.268+9.75609L200+9.75609Z" opacity="1" fill="#ff5722"/>
<path d="M200+341.463C156.878+341.463+151.22+273.171+151.22+273.171C151.22+273.171+175.678+312.195+200+312.195C224.322+312.195+248.78+273.171+248.78+273.171C248.78+273.171+243.122+341.463+200+341.463" opacity="1" fill="#ffb74d"/>
<path d="M229.268+175.61C229.268+180.985+233.639+185.366+239.024+185.366C244.41+185.366+248.78+180.985+248.78+175.61C248.78+170.234+244.41+165.854+239.024+165.854C233.639+165.854+229.268+170.234+229.268+175.61M151.22+175.61C151.22+180.985+155.59+185.366+160.976+185.366C166.361+185.366+170.732+180.985+170.732+175.61C170.732+170.234+166.361+165.854+160.976+165.854C155.59+165.854+151.22+170.234+151.22+175.61" opacity="1" fill="#784719"/>
<path d="M278.049+19.5122C278.049+19.5122+248.78-4.76837e-06+200-4.76837e-06C151.22-4.76837e-06+121.951+19.5122+121.951+19.5122L121.951+117.073C121.951+117.073+151.22+97.561+200+97.561C248.78+97.561+278.049+117.073+278.049+117.073L278.049+19.5122Z" opacity="1" fill="#b3e5fc"/>
<path d="M190.244+19.5122L209.756+19.5122L209.756+78.0488L190.244+78.0488L190.244+19.5122Z" opacity="1" fill="#f44336"/>
<path d="M170.732+39.0244L229.268+39.0244L229.268+58.5366L170.732+58.5366L170.732+39.0244Z" opacity="1" fill="#f44336"/>
<path d="M121.951+117.073L278.049+117.073L278.049+292.683L121.951+292.683L121.951+117.073Z" opacity="1" fill="#bf360c"/>
<path d="M356.098+400L43.9024+400C43.9024+292.546+151.22+273.171+151.22+273.171L248.78+273.171C248.78+273.171+356.098+292.927+356.098+400" opacity="1" fill="#b3e5fc"/>
<path d="M200+331.707C178.605+331.707+151.22+273.171+151.22+273.171L151.22+214.634L248.78+214.634L248.78+273.171C248.78+273.171+221.385+331.707+200+331.707" opacity="1" fill="#ff9800"/>
<path d="M287.805+107.317C287.805+32.8293+112.195+58.8195+112.195+107.317L112.195+175.61C112.195+224.107+151.493+263.415+200+263.415C248.498+263.415+287.805+224.107+287.805+175.61L287.805+107.317Z" opacity="1" fill="#ffb74d"/>
<path d="M200+9.75609C140.732+9.75609+53.6585+42.9659+53.6585+236.937L121.951+282.927L121.951+156.098L239.024+87.8049L278.049+136.585L278.049+282.927L346.341+224.39C346.341+185.122+339.766+29.2683+239.024+29.2683L229.268+9.75609L200+9.75609Z" opacity="1" fill="#ff5722"/>
<path d="M200+341.463C156.878+341.463+151.22+273.171+151.22+273.171C151.22+273.171+175.678+312.195+200+312.195C224.322+312.195+248.78+273.171+248.78+273.171C248.78+273.171+243.122+341.463+200+341.463" opacity="1" fill="#ffb74d"/>
<path d="M229.268+175.61C229.268+170.234+233.639+165.854+239.024+165.854C244.41+165.854+248.78+170.234+248.78+175.61C248.78+180.985+244.41+185.366+239.024+185.366C233.639+185.366+229.268+180.985+229.268+175.61M151.22+175.61C151.22+180.985+155.59+185.366+160.976+185.366C166.361+185.366+170.732+180.985+170.732+175.61C170.732+170.234+166.361+165.854+160.976+165.854C155.59+165.854+151.22+170.234+151.22+175.61" opacity="1" fill="#784719"/>
<path d="M278.049+19.5122C278.049+19.5122+248.78-4.76837e-06+200-4.76837e-06C151.22-4.76837e-06+121.951+19.5122+121.951+19.5122L121.951+117.073C121.951+117.073+151.22+97.561+200+97.561C248.78+97.561+278.049+117.073+278.049+117.073L278.049+19.5122Z" opacity="1" fill="#b3e5fc"/>
<path d="M229.268+39.0244L209.756+39.0244L209.756+19.5122L190.244+19.5122L190.244+39.0244L170.732+39.0244L170.732+58.5366L190.244+58.5366L190.244+78.0488L209.756+78.0488L209.756+58.5366L229.268+58.5366L229.268+39.0244Z" opacity="1" fill="#f44336"/>
</g>
<path stroke="#f9f9f9" stroke-opacity="0" stroke-width="2" d="M300.359+337.02L306.643+341.082L300.359+345.145L300.359+337.02ZM289.977+336.638C288.136+336.638+286.643+338.13+286.643+339.971C286.643+341.812+288.136+343.305+289.977+343.305C291.818+343.305+293.31+341.812+293.31+339.971C293.31+338.13+291.818+336.638+289.977+336.638Z" fill="#f44336" stroke-linecap="butt" opacity="1" stroke-linejoin="miter"/>
<path stroke="#f44336" stroke-width="2" d="M271.088+369.971L271.088+378.86M279.977+369.971L279.977+376.638M277.754+358.86C273.15+358.86+269.199+356.06+267.514+352.069M282.199+349.971C282.199+349.971+277.383+345.527+271.717+345.527C266.859+345.527+263.332+347.071+261.186+348.993L255.226+341.542" fill="none" stroke-linecap="butt" opacity="1" stroke-linejoin="miter"/>
<path stroke="#f44336" stroke-width="2" d="M285.141+351.553C280.837+350.022+277.754+345.913+277.754+341.082C277.754+334.947+282.73+329.971+288.866+329.971C295.001+329.971+299.977+334.947+299.977+341.082C299.977+346.925+295.532+351.082+295.532+351.082C295.532+361.513+287.074+369.971+276.643+369.971C267.617+369.971+260.068+363.64+258.199+355.176L246.643+343.305" fill="none" stroke-linecap="butt" opacity="1" stroke-linejoin="miter"/>
</g>
</svg>
