<?xml version="1.0" encoding="UTF-8" standalone="no"?> <!-- Created with Vectornator for iOS (http://vectornator.io/) --><!DOCTYPE svg PUBLIC "-//W3C//DTD SVG 1.1//EN" "http://www.w3.org/Graphics/SVG/1.1/DTD/svg11.dtd">
<svg height="100%" style="fill-rule:nonzero;clip-rule:evenodd;stroke-linecap:round;stroke-linejoin:round;" xmlns:xlink="http://www.w3.org/1999/xlink" xmlns="http://www.w3.org/2000/svg" xml:space="preserve" width="100%" xmlns:vectornator="http://vectornator.io" version="1.1" viewBox="0 0 115 115">
<metadata>
<vectornator:setting key="DimensionsVisible" value="1"/>
<vectornator:setting key="PencilOnly" value="1"/>
<vectornator:setting key="SnapToPoints" value="0"/>
<vectornator:setting key="OutlineMode" value="0"/>
<vectornator:setting key="CMYKEnabledKey" value="0"/>
<vectornator:setting key="RulersVisible" value="1"/>
<vectornator:setting key="SnapToEdges" value="0"/>
<vectornator:setting key="GuidesVisible" value="1"/>
<vectornator:setting key="DisplayWhiteBackground" value="0"/>
<vectornator:setting key="doHistoryDisabled" value="0"/>
<vectornator:setting key="SnapToGuides" value="1"/>
<vectornator:setting key="TimeLapseWatermarkDisabled" value="0"/>
<vectornator:setting key="Units" value="Pixels"/>
<vectornator:setting key="DynamicGuides" value="0"/>
<vectornator:setting key="IsolateActiveLayer" value="0"/>
<vectornator:setting key="SnapToGrid" value="0"/>
</metadata>
<defs/>
<g id="Layer 1" vectornator:layerName="Layer 1">
<path d="M53.4977+99.4478C52.1835+99.4478+51.1321+98.3964+50.8693+97.0822L48.2408+76.3175C47.978+75.0033+49.0294+73.6891+50.6064+73.4262C51.9207+73.1634+53.2349+74.2147+53.4977+75.7918L56.1262+96.5565C56.389+97.8707+55.3376+99.1849+53.7606+99.4478C53.7606+99.4478+53.7606+99.4478+53.4977+99.4478Z" opacity="1" fill="#5d4037"/>
<path d="M66.6399+102.076C66.1143+102.076+65.8514+102.076+65.5886+101.813C60.8574+99.4478+53.4977+99.4478+53.4977+99.4478L48.2408+99.4478C46.6638+99.4478+45.6124+98.3964+45.6124+96.8193C45.6124+95.2423+46.6638+94.1909+48.2408+94.1909L53.4977+94.1909C53.7606+94.1909+62.1716+94.1909+67.6913+97.0822C69.0055+97.6079+69.5312+99.1849+68.7427+100.499C68.4799+101.551+67.4285+102.076+66.6399+102.076Z" opacity="1" fill="#5d4037"/>
<path d="M48.2408+101.813C46.9266+101.813+45.8753+100.762+45.6124+99.4478L42.984+78.6831C42.7211+77.3689+43.7725+76.0547+45.3496+75.7918C46.6638+75.529+47.978+76.5803+48.2408+78.1574L50.8693+98.9221C51.1321+100.236+50.0808+101.551+48.5037+101.813C48.5037+101.813+48.5037+101.813+48.2408+101.813Z" opacity="1" fill="#795548"/>
<path d="M61.3831+104.705C60.8574+104.705+60.5945+104.705+60.3317+104.442C55.6005+102.076+48.2408+102.076+48.2408+102.076L42.984+102.076C41.4069+102.076+40.3555+101.025+40.3555+99.4478C40.3555+97.8707+41.4069+96.8193+42.984+96.8193L48.2408+96.8193C48.5037+96.8193+56.9147+96.8193+62.4344+99.7106C63.7487+100.236+64.2743+101.813+63.4858+103.128C63.223+104.179+62.1716+104.705+61.3831+104.705Z" opacity="1" fill="#795548"/>
<path d="M37.7271+54.7643C37.7271+54.7643+56.1262+54.7643+64.0115+46.8789C69.0055+41.8849+69.2684+33.4739+64.0115+28.217C58.7546+22.9601+50.6064+22.9601+45.3496+28.217C36.4129+37.6794+37.7271+54.7643+37.7271+54.7643Z" opacity="1" fill="#ffc107"/>
<path d="M71.3711+78.4203C61.1202+88.6712+26.9505+91.5625+26.9505+91.5625C26.9505+91.5625+29.8418+60.284+41.4069+48.456C49.5551+40.3078+63.223+40.3078+71.3711+48.456C79.7821+56.867+79.7821+70.2721+71.3711+78.4203Z" opacity="1" fill="#ffc107"/>
<path d="M67.4285+33.7367L75.8395+24.5372L64.5372+28.7427L60.8574+36.1023L67.9542+39.5193L78.7308+35.051L67.4285+33.7367Z" opacity="1" fill="#455a64"/>
<path d="M52.4464+30.3198C52.7092+30.8455+52.7092+31.3711+52.7092+31.8968C52.7092+33.9996+50.8693+35.8395+48.7665+35.8395C48.2408+35.8395+47.7152+35.8395+47.1895+35.5766C47.7152+36.8909+49.0294+37.9422+50.6064+37.9422C52.7092+37.9422+54.5491+36.1023+54.5491+33.9996C54.812+32.1597+53.7606+30.8455+52.4464+30.3198Z" opacity="1" fill="#795548"/>
<path d="M98.4441+10.0808C96.867+10.0808+93.9757+10.0808+93.9757+11.6578L93.9757+26.6399C93.9757+26.6399+93.45+26.3771+91.873+26.3771C88.7188+26.6399+86.3532+29.0055+86.3532+31.634C86.3532+33.9996+88.7188+35.5766+91.873+35.051C94.7643+34.5253+97.1299+32.4225+97.1299+30.0569C97.1299+30.0569+97.1299+18.7546+97.1299+17.7032C97.1299+16.6519+97.9184+16.1262+98.4441+16.1262C108.169+16.1262+107.381+21.6459+107.381+21.6459C107.381+21.6459+109.221+10.0808+98.4441+10.0808Z" opacity="1" fill="#348ad3"/>
<path d="M55.6005+71.3235C50.3436+76.5803+39.3041+82.1001+24.5849+84.9914C28.7904+68.1693+32.733+58.9698+37.9899+53.7129C43.2468+48.456+51.395+48.1932+56.1262+52.9244C61.1202+57.9184+60.5945+66.0666+55.6005+71.3235Z" opacity="1" fill="#90a4ae"/>
<path d="M27.2133+91.5625C27.2133+91.5625+27.2133+90.2482+27.4762+88.1455L7.5+94.1909C7.5+107.333+23.2707+104.705+23.2707+104.705L31.156+91.5625L31.4188+91.0368C28.7904+91.2996+27.2133+91.5625+27.2133+91.5625ZM31.4188+64.2267C29.0532+69.4835+26.9505+76.3175+24.5849+84.9914C39.0413+81.8372+50.3436+76.3175+55.6005+71.3235C58.2289+68.695+59.5431+65.5409+59.806+62.1239C47.4523+60.0212+37.7271+61.8611+31.4188+64.2267Z" opacity="1" fill="#607d8b"/>
<path d="M52.1835+61.3354C51.6578+61.8611+51.395+62.3868+50.8693+62.9124C46.6638+67.118+38.2528+71.5863+27.739+74.7404C27.2133+76.5803+26.6876+78.1574+26.1619+80.2602C39.0413+77.106+48.7665+72.112+53.4977+67.3808C55.0748+65.8037+56.1262+63.701+56.9147+61.8611C55.0748+61.5982+53.4977+61.3354+52.1835+61.3354ZM29.3161+69.7464C36.4129+67.3808+42.1954+64.4895+46.1381+61.3354C40.0927+61.5982+35.0986+62.9124+31.4188+64.2267C30.6303+65.8037+29.8418+67.6436+29.3161+69.7464Z" opacity="1" fill="#37474f"/>
</g>
</svg>
