<?xml version="1.0" encoding="UTF-8" standalone="no"?> <!-- Created with Vectornator for iOS (http://vectornator.io/) --><!DOCTYPE svg PUBLIC "-//W3C//DTD SVG 1.1//EN" "http://www.w3.org/Graphics/SVG/1.1/DTD/svg11.dtd">
<svg height="100%" style="fill-rule:nonzero;clip-rule:evenodd;stroke-linecap:round;stroke-linejoin:round;" xmlns:xlink="http://www.w3.org/1999/xlink" xmlns="http://www.w3.org/2000/svg" xml:space="preserve" width="100%" xmlns:vectornator="http://vectornator.io" version="1.1" viewBox="0 0 300 300">
<metadata>
<vectornator:setting key="DimensionsVisible" value="1"/>
<vectornator:setting key="PencilOnly" value="1"/>
<vectornator:setting key="SnapToPoints" value="0"/>
<vectornator:setting key="OutlineMode" value="0"/>
<vectornator:setting key="CMYKEnabledKey" value="0"/>
<vectornator:setting key="RulersVisible" value="1"/>
<vectornator:setting key="SnapToEdges" value="0"/>
<vectornator:setting key="GuidesVisible" value="1"/>
<vectornator:setting key="DisplayWhiteBackground" value="0"/>
<vectornator:setting key="doHistoryDisabled" value="0"/>
<vectornator:setting key="SnapToGuides" value="1"/>
<vectornator:setting key="TimeLapseWatermarkDisabled" value="0"/>
<vectornator:setting key="Units" value="Pixels"/>
<vectornator:setting key="DynamicGuides" value="0"/>
<vectornator:setting key="IsolateActiveLayer" value="0"/>
<vectornator:setting key="SnapToGrid" value="0"/>
</metadata>
<defs/>
<g id="Layer 1" vectornator:layerName="Layer 1">
<path d="M165.77+93.3847L165.77+45.4308C165.77+32.2434+154.981+21.4538+141.794+21.4538L141.794+21.4538C128.606+21.4538+117.817+32.2434+117.817+45.4308L117.817+117.362C117.817+143.736+139.396+165.316+165.77+165.316L189.747+165.316C216.121+165.316+237.699+143.736+237.699+117.362L237.699+93.3847L165.77+93.3847Z" opacity="1" fill="#ffffff"/>
<path d="M141.794+55.0216C139.875+55.0216+137.957+54.3023+136.758+52.8636C135.32+51.6648+134.601+49.7466+134.601+47.8285L148.986+47.8285C148.986+49.7466+148.267+51.6648+146.829+52.8636C145.39+54.0625+143.712+55.0216+141.794+55.0216Z" opacity="1" fill="#454b54"/>
<path d="M103.431+274.411L146.349+214.948C155.94+201.761+175.6+201.761+185.191+214.948L228.109+274.411" opacity="1" fill="#e2d311"/>
<path d="M189.746+172.509C220.197+172.509+244.892+147.812+244.892+117.362L244.892+93.3847C244.892+89.3087+241.775+86.1916+237.699+86.1916L172.963+86.1916L172.963+45.4308C172.963+28.1674+159.057+14.2607+141.794+14.2607C124.53+14.2607+110.624+28.1674+110.624+45.4308L110.624+50.2262L81.8524+50.2262C77.7764+50.2262+74.6594+53.3432+74.6594+57.4193L74.6594+59.817C74.6594+63.8931+77.7764+67.0101+81.8524+67.0101C84.0102+67.0101+85.9284+66.051+87.1272+64.6124L110.624+64.6124L110.624+117.362C110.624+145.415+131.484+168.433+158.577+172.029L158.577+198.644C151.384+200.322+144.91+204.638+140.595+210.632L97.6768+270.095C95.2792+273.212+95.9985+277.768+99.3552+280.165C102.472+282.563+107.028+281.844+109.425+278.487L152.103+219.264C155.22+214.948+160.255+212.311+165.77+212.311C171.285+212.311+176.08+214.948+179.437+219.264L222.355+278.727C223.793+280.645+225.951+281.604+228.109+281.604C229.547+281.604+230.986+281.125+232.425+280.165C235.542+277.768+236.261+273.452+234.103+270.095L190.945+210.872C186.39+204.638+180.156+200.562+172.963+198.883L172.963+172.509C172.963+172.509+189.746+172.509+189.746+172.509ZM125.01+117.362L125.01+45.4308C125.01+36.0798+132.443+28.6469+141.794+28.6469C151.144+28.6469+158.577+36.0798+158.577+45.4308L158.577+93.3847C158.577+97.4608+161.694+100.578+165.77+100.578L230.507+100.578L230.507+117.362C230.507+139.9+212.284+158.123+189.747+158.123L165.77+158.123C143.232+158.123+125.01+139.66+125.01+117.362Z" opacity="1" fill="#454b54"/>
<path d="M190.226+284.002C189.986+284.002+189.986+284.002+189.747+284.002C180.875+284.002+172.483+280.885+165.77+275.61C159.057+280.645+150.905+283.522+142.273+283.522C133.402+283.522+125.25+280.645+118.536+275.61C111.823+280.885+103.671+283.522+94.7997+283.522C85.9284+283.522+77.7764+280.645+71.063+275.61C64.3495+280.885+56.1975+283.522+47.3262+283.522C36.0573+283.522+25.2679+278.727+18.0749+270.335C15.4375+267.218+15.9171+262.662+18.7942+260.265C21.9112+257.627+26.4667+258.107+28.8644+260.984C33.1801+266.259+39.8935+269.136+47.0865+269.136C54.2794+269.136+60.9928+266.259+65.3086+260.984C66.7472+259.305+68.6653+258.346+70.8232+258.346C72.9811+258.346+74.8992+259.305+76.3378+260.984C80.6535+266.259+87.367+269.136+94.5599+269.136C101.753+269.136+108.466+266.259+112.782+260.984C114.221+259.305+116.139+258.346+118.297+258.346C120.454+258.346+122.373+259.305+123.811+260.984C128.127+266.259+134.84+269.136+142.033+269.136C149.226+269.136+155.94+266.259+160.255+260.984C161.694+259.305+163.612+258.346+165.77+258.346L165.77+258.346C167.928+258.346+169.846+259.305+171.285+260.984L171.764+261.463C176.08+266.499+182.793+269.616+189.747+269.616L189.986+269.616C196.939+269.616+203.413+266.738+207.969+261.703L208.928+260.744C210.366+259.066+212.284+258.346+214.442+258.346C216.6+258.346+218.518+259.305+219.957+260.984C224.273+266.259+230.986+269.136+238.179+269.136C242.255+269.136+245.372+272.253+245.372+276.329C245.372+280.405+242.255+283.522+238.179+283.522C229.547+283.522+221.156+280.645+214.682+275.61C207.729+280.885+199.097+284.002+190.226+284.002ZM264.959+244.851C260.883+244.851+257.766+241.734+257.766+237.658C257.766+233.582+260.883+230.465+264.959+230.465L264.959+230.465C269.035+230.465+272.152+233.582+272.152+237.658C272.152+241.734+269.035+244.851+264.959+244.851Z" opacity="1" fill="#454b54"/>
<path d="M237.939+283.522C226.67+283.522+215.881+278.727+208.688+270.335C206.051+267.218+206.53+262.662+209.407+260.265C212.524+257.627+217.08+258.107+219.477+260.984C223.793+266.259+230.507+269.136+237.699+269.136C244.892+269.136+251.606+266.259+255.922+260.984C257.36+259.305+259.278+258.346+261.436+258.346L261.436+258.346C263.594+258.346+265.512+259.305+266.951+260.984C271.267+266.019+277.74+268.896+284.454+269.136C288.53+269.136+291.647+272.493+291.407+276.569C291.407+280.405+288.05+283.522+284.214+283.522L283.974+283.522C275.582+283.282+267.67+280.405+261.196+275.61C255.202+280.645+246.811+283.522+237.939+283.522Z" opacity="1" fill="#454b54"/>
<path d="M213.723+141.339L213.723+141.339C187.349+141.339+165.77+119.759+165.77+93.3847L165.77+93.3847L261.676+93.3847L261.676+93.3847C261.676+119.759+240.097+141.339+213.723+141.339Z" opacity="1" fill="#7ca5c6"/>
<path d="M261.676+90.987L237.699+90.987L237.699+114.964C237.699+121.917+236.261+128.631+233.384+134.625C249.927+127.192+261.676+110.408+261.676+90.987C261.676+91.2268+261.676+91.2268+261.676+90.987C261.676+91.2268+261.676+91.2268+261.676+90.987L261.676+90.987L261.676+90.987L261.676+90.987L261.676+90.987" opacity="1" fill="#7196b4"/>
<path d="M213.723+148.532C183.273+148.532+158.577+123.836+158.577+93.3847C158.577+89.3087+161.694+86.1916+165.77+86.1916L261.676+86.1916C265.752+86.1916+268.869+89.3087+268.869+93.3847C268.869+123.836+244.173+148.532+213.723+148.532ZM173.443+100.578C176.799+119.52+193.583+134.146+213.483+134.146C233.384+134.146+250.167+119.52+253.524+100.578L173.443+100.578Z" opacity="1" fill="#454b54"/>
</g>
</svg>
