<?xml version="1.0" encoding="UTF-8" standalone="no"?> <!-- Created with Vectornator for iOS (http://vectornator.io/) --><!DOCTYPE svg PUBLIC "-//W3C//DTD SVG 1.1//EN" "http://www.w3.org/Graphics/SVG/1.1/DTD/svg11.dtd">
<svg height="100%" style="fill-rule:nonzero;clip-rule:evenodd;stroke-linecap:round;stroke-linejoin:round;" xmlns:xlink="http://www.w3.org/1999/xlink" xmlns="http://www.w3.org/2000/svg" xml:space="preserve" width="100%" xmlns:vectornator="http://vectornator.io" version="1.1" viewBox="0 0 400 400">
<metadata>
<vectornator:setting key="DimensionsVisible" value="1"/>
<vectornator:setting key="PencilOnly" value="1"/>
<vectornator:setting key="SnapToPoints" value="0"/>
<vectornator:setting key="OutlineMode" value="0"/>
<vectornator:setting key="CMYKEnabledKey" value="0"/>
<vectornator:setting key="RulersVisible" value="1"/>
<vectornator:setting key="SnapToEdges" value="0"/>
<vectornator:setting key="GuidesVisible" value="1"/>
<vectornator:setting key="DisplayWhiteBackground" value="0"/>
<vectornator:setting key="doHistoryDisabled" value="0"/>
<vectornator:setting key="SnapToGuides" value="1"/>
<vectornator:setting key="TimeLapseWatermarkDisabled" value="0"/>
<vectornator:setting key="Units" value="Pixels"/>
<vectornator:setting key="DynamicGuides" value="0"/>
<vectornator:setting key="IsolateActiveLayer" value="0"/>
<vectornator:setting key="SnapToGrid" value="0"/>
</metadata>
<defs/>
<g id="Layer 1" vectornator:layerName="Layer 1">
<path d="M369.846+164.858L298.776+164.858L260.943+92.3739L184.923+92.3739L184.923+175.112L21.2149+175.112L21.2149+255.728L184.923+255.728L244.325+255.728L375.15+255.728L388.586+188.194C391.414+176.173+382.221+164.858+369.846+164.858" opacity="1" fill="#fb6162"/>
<path d="M184.923+175.465L163.708+175.465L163.354+248.657L184.923+248.657L184.923+175.465" opacity="1" fill="#c2595a"/>
<path d="M343.327+201.984L304.08+201.984C292.061+201.984+281.097+207.995+274.382+217.895L249.632+255.728L362.421+255.728L362.421+221.077C362.421+210.47+353.935+201.984+343.327+201.984M120.571+201.984L63.6446+201.984C53.0372+201.984+44.5512+210.47+44.5512+221.077L44.5512+255.728L139.665+255.728L139.665+221.077C139.665+210.47+131.179+201.984+120.571+201.984" opacity="1" fill="#b8bec4"/>
<path d="M260.943+96.2633L211.441+96.2633L211.441+145.411C211.441+156.019+219.927+164.504+230.535+164.504L299.13+164.504L260.943+96.2633Z" opacity="1" fill="#d3e0e2"/>
<path d="M298.776+175.465L230.535+175.465C214.27+175.465+200.834+162.029+200.834+145.765L200.834+96.2633C200.834+90.2524+205.431+85.6559+211.441+85.6559C217.452+85.6559+222.049+90.2524+222.049+96.2633L222.049+145.411C222.049+150.008+225.938+153.897+230.535+153.897L299.13+153.897C305.14+153.897+309.737+158.494+309.737+164.504C309.737+170.515+304.787+175.465+298.776+175.465ZM279.683+266.336L191.995+266.336C182.094+266.336+174.315+258.557+174.315+248.657C174.315+242.646+178.912+238.049+184.923+238.049C189.519+238.049+193.409+240.878+194.823+245.121L279.683+245.121C285.694+245.121+290.29+249.717+290.29+255.728C290.29+261.739+285.694+266.336+279.683+266.336Z" opacity="1" fill="#454b54"/>
<path d="M375.15+266.336C374.442+266.336+373.735+266.336+373.028+265.982C367.371+264.921+363.481+259.264+364.542+253.607L377.978+186.073L377.978+185.719C378.685+183.244+377.978+180.416+376.21+178.294C375.15+177.233+373.028+175.112+369.492+175.112L298.776+175.112C294.887+175.112+291.351+172.99+289.229+169.455L255.993+106.517C254.932+104.042+252.457+102.628+249.628+102.628L195.53+102.628L195.53+199.509C195.53+205.52+190.934+210.116+184.923+210.116C178.912+210.116+174.315+205.52+174.315+199.509L174.315+92.3739C174.315+86.363+178.912+81.7665+184.923+81.7665L250.335+81.7665C260.943+81.7665+270.49+87.4238+275.44+96.9705L305.494+154.251L370.199+154.251C379.392+154.251+387.878+158.494+393.536+165.565C399.193+172.637+401.315+181.83+399.193+190.669L385.757+258.203C384.343+263.154+380.1+266.336+375.15+266.336Z" opacity="1" fill="#454b54"/>
<path d="M389.293+266.336L348.985+266.336C342.974+266.336+338.377+261.739+338.377+255.728C338.377+249.717+342.974+245.121+348.985+245.121L389.293+245.121C395.304+245.121+399.9+249.717+399.9+255.728C399.9+261.739+394.95+266.336+389.293+266.336ZM181.387+259.264L118.45+259.264C112.439+259.264+107.842+254.668+107.842+248.657C107.842+242.646+112.439+238.049+118.45+238.049L181.387+238.049C187.398+238.049+191.995+242.646+191.995+248.657C191.995+254.668+187.398+259.264+181.387+259.264ZM21.2149+255.728C15.204+255.728+10.6074+251.132+10.6074+245.121L10.6074+175.465C10.6074+169.455+15.204+164.858+21.2149+164.858C27.2257+164.858+31.8223+169.455+31.8223+175.465L31.8223+245.475C31.8223+251.132+27.2257+255.728+21.2149+255.728Z" opacity="1" fill="#454b54"/>
<path d="M92.2847+240.171C71.9758+240.171+55.5122+256.634+55.5122+276.943C55.5122+297.252+71.9758+313.716+92.2847+313.716C112.594+313.716+129.057+297.252+129.057+276.943C129.057+256.634+112.594+240.171+92.2847+240.171Z" opacity="1" fill="#ffffff"/>
<path d="M92.2847+324.323C66.1197+324.323+44.9048+303.108+44.9048+276.943C44.9048+250.778+66.1197+229.563+92.2847+229.563C118.45+229.563+139.665+250.778+139.665+276.943C139.311+303.108+118.45+324.323+92.2847+324.323ZM92.2847+250.425C77.7878+250.425+66.1197+262.093+66.1197+276.59C66.1197+291.086+77.7878+302.755+92.2847+302.755C106.781+302.755+118.45+291.086+118.45+276.59C118.096+262.446+106.428+250.425+92.2847+250.425Z" opacity="1" fill="#454b54"/>
<path d="M316.101+240.171C295.793+240.171+279.329+256.634+279.329+276.943C279.329+297.252+295.793+313.716+316.101+313.716C336.41+313.716+352.874+297.252+352.874+276.943C352.874+256.634+336.41+240.171+316.101+240.171Z" opacity="1" fill="#ffffff"/>
<path d="M316.101+324.323C289.936+324.323+268.722+303.108+268.722+276.943C268.722+250.778+289.936+229.563+316.101+229.563C342.266+229.563+363.481+250.778+363.481+276.943C363.481+303.108+342.266+324.323+316.101+324.323ZM316.101+250.425C301.605+250.425+289.936+262.093+289.936+276.59C289.936+291.086+301.605+302.755+316.101+302.755C330.598+302.755+342.266+291.086+342.266+276.59C342.266+262.446+330.598+250.425+316.101+250.425ZM65.7661+259.264L10.6074+259.264C4.59656+259.264+4.67856e-06+254.668+4.67856e-06+248.657C4.67856e-06+242.646+4.59656+238.049+10.6074+238.049L65.7661+238.049C71.777+238.049+76.3735+242.646+76.3735+248.657C76.3735+254.668+71.777+259.264+65.7661+259.264ZM175.73+186.073L14.1432+186.073C8.13237+186.073+3.53582+181.476+3.53582+175.465C3.53582+169.455+8.13237+164.858+14.1432+164.858L175.73+164.858C181.741+164.858+186.337+169.455+186.337+175.465C186.337+181.476+181.387+186.073+175.73+186.073Z" opacity="1" fill="#454b54"/>
<g opacity="1">
<path d="M372.718+154.215L337.36+154.215C337.36+152.924+351.596+132.664+335.396+120.805C319.518+109.182+313.788+101.164+313.788+85.4472L325.515+90.2127C324.513+97.2195+333.202+102.688+347.63+110.856C350.433+112.443+353.291+114.062+356.108+115.753C375.954+127.661+373.95+143.745+372.987+151.476C372.848+152.588+372.718+153.655+372.718+154.215Z" opacity="1" fill="#cfd8dc"/>
<path d="M337.009+86.4808C337.009+93.356+332.171+97.2846+326.205+97.2846C320.239+97.2846+315.401+92.4465+315.401+86.4808C315.401+80.5151+320.239+75.6769+326.205+75.6769C332.171+75.6769+337.009+80.5151+337.009+86.4808Z" opacity="1" fill="#cfd8dc"/>
<path d="M333.08+81.5699L378.26+81.5699C378.26+81.5699+386.117+81.5699+386.117+87.4629L335.045+87.4629" opacity="1" fill="#f57c00"/>
<path d="M337.009+81.5699C337.009+81.5699+338.494+87.4629+337.009+87.4629C335.045+87.4629+329.124+87.7262+327.763+87.2095C325.732+86.4415+324.708+84.1766+325.478+82.1455C326.246+80.1163+328.511+79.0929+330.54+79.8609L337.009+81.5699Z" opacity="1" fill="#f57c00"/>
<path d="M329.152+81.5699C328.067+81.5699+327.187+82.4494+327.187+83.5343C327.187+84.6191+328.067+85.4986+329.152+85.4986C330.236+85.4986+331.116+84.6191+331.116+83.5343C331.116+82.4494+330.236+81.5699+329.152+81.5699Z" opacity="1" fill="#3e2723"/>
<path d="M337.009+87.4629C337.009+87.4629+388.082+87.4629+384.153+87.4629C368.438+87.4629+368.438+111.035+348.795+111.035C336.846+111.035+329.152+99.249+329.152+97.2846C329.152+93.356+337.009+93.2518+337.009+87.4629Z" opacity="1" fill="#ffa000"/>
<path d="M354.987+114.209C353.136+113.133+351.28+112.047+349.447+111.009C349.229+111.015+349.019+111.035+348.795+111.035C336.846+111.035+329.152+99.249+329.152+97.2846C329.152+101.693+334.742+114.964+348.795+114.964C351.066+114.964+353.118+114.691+354.987+114.209Z" opacity="1" fill="#78909c"/>
<path d="M369.222+125.787C369.397+128.03+369.265+129.948+369.075+131.362L362.545+127.009L362.545+130.678C362.545+135.381+362.078+138.66+361.624+140.73L354.692+133.798L354.688+138.536C354.686+140.164+354.488+144.24+353.692+147.299L347.575+143.225L346.89+145.912C346.872+145.979+345.151+152.506+340.56+154.25L346.937+154.25C348.286+152.628+349.211+150.84+349.809+149.43L355.448+153.19L356.444+151.2C357.566+148.953+358.11+145.688+358.369+143.034L363.082+147.745L364.299+145.307C364.376+145.152+365.973+141.873+366.378+134.287L371.45+137.669L372.263+135.23C372.3+135.124+372.646+134.033+372.917+132.242C372.041+130.101+370.839+127.932+369.222+125.787Z" opacity="1" fill="#90a4ae"/>
</g>
</g>
</svg>
