<?xml version="1.0" encoding="UTF-8" standalone="no"?> <!-- Created with Vectornator for iOS (http://vectornator.io/) --><!DOCTYPE svg PUBLIC "-//W3C//DTD SVG 1.1//EN" "http://www.w3.org/Graphics/SVG/1.1/DTD/svg11.dtd">
<svg height="100%" style="fill-rule:nonzero;clip-rule:evenodd;stroke-linecap:round;stroke-linejoin:round;" xmlns:xlink="http://www.w3.org/1999/xlink" xmlns="http://www.w3.org/2000/svg" xml:space="preserve" width="100%" xmlns:vectornator="http://vectornator.io" version="1.1" viewBox="0 0 400 400">
<metadata>
<vectornator:setting key="DimensionsVisible" value="1"/>
<vectornator:setting key="PencilOnly" value="1"/>
<vectornator:setting key="SnapToPoints" value="0"/>
<vectornator:setting key="OutlineMode" value="0"/>
<vectornator:setting key="CMYKEnabledKey" value="0"/>
<vectornator:setting key="RulersVisible" value="1"/>
<vectornator:setting key="SnapToEdges" value="0"/>
<vectornator:setting key="GuidesVisible" value="1"/>
<vectornator:setting key="DisplayWhiteBackground" value="0"/>
<vectornator:setting key="doHistoryDisabled" value="0"/>
<vectornator:setting key="SnapToGuides" value="1"/>
<vectornator:setting key="TimeLapseWatermarkDisabled" value="0"/>
<vectornator:setting key="Units" value="Pixels"/>
<vectornator:setting key="DynamicGuides" value="0"/>
<vectornator:setting key="IsolateActiveLayer" value="0"/>
<vectornator:setting key="SnapToGrid" value="0"/>
</metadata>
<defs/>
<g id="Layer 1" vectornator:layerName="Layer 1" visibility="hidden">
<path d="M206.52+165.52C227.306+142.59+266.438+141.389+288.516+163.109C311.523+183.557+313.144+222.425+291.918+244.718C290.655+246.421+291.105+245.309+291.637+244.062C290.168+246.422+288.993+249.006+287.82+251.536C283.89+261.793+281.095+272.456+278.541+283.131C276.018+283.56+273.495+283.989+270.972+284.418C266.09+284.589+261.209+284.761+256.328+284.932C249.089+284.845+241.85+284.758+234.611+284.672C211.405+281.613+183.64+287.631+162.986+273.734C166.285+240.384+171.255+205.109+189.844+176.398C214.826+175.291+234.998+195.82+256.074+205.882C267.631+214.78+282.656+220.681+291.313+233.088C281.921+259.306+276.673+288.629+256.688+309.356C240.905+323.657+217.567+331.492+196.915+323.44C185.512+318.836+173.371+314.372+164.468+305.507C138.606+270.073+143.173+221.966+154.548+182.032C156.596+195.061+166.513+206.405+171.866+218.376C177.482+225.227+184.33+230.405+192.579+233.68C211.269+236.863+234.594+238.183+251.461+228.779C219.826+271.528+211.746+325.829+188.716+372.779C182.782+380.506+175.386+386.95+168.433+393.719C154.766+400.171+139.446+392.915+126.962+387.649C109.437+376.99+88.1445+369.259+75.6376+352.063C75.0441+346.943+74.8213+341.777+75.0246+336.626C81.8303+263.17+102.91+191.117+133.86+124.521C133.007+143.297+153.864+156.364+162.31+171.428C170.42+179.899+178.918+190.215+191.122+192.741C199.891+191.72+209.223+191.201+216.893+186.391C215.819+188.039+215.217+187.522+216.865+186.363C205.336+199.449+197.219+215.059+189.775+230.712C161.024+287.204+152.057+351.919+120.415+406.92C116.801+412.263+112.585+417.201+107.856+421.589C99.8169+428.135+90.6532+433.901+80.4264+436.205C50.2769+443.186+16.0988+428.146+5.03153+398.432C-8.43261+355.577-3.01798+308.449+8.08817+265.601C29.4368+273.878+48.6769+286.756+68.935+297.247C81.8607+302.579+93.9447+312.274+108.398+313.512C109.622+313.141+111.641+308.267+113.07+309.161C102.038+338.309+95.9654+369.477+81.1151+397.068C75.4639+403.85+67.6656+408.348+60.3292+413.007C32.6308+435.303-12.7321+420.424-27.2799+390.017C-34.4169+377.146-34.5483+362.184-33.7634+347.915C-29.3487+305.788-11.8458+266.872-10.6285+224.92C-19.3746+153.795-23.0664+78.4324+3.09062+10.4389C26.4287-41.7652+85.6745-67.7462+140.44-67.3282C151.989-66.5425+163.385-62.0163+173.123-55.8963C185.461-46.6304+195.766-33.1047+197.091-17.2523C198.032-1.93745+195.933+13.9635+190.225+28.2436C155.651+64.5595+129.827+107.63+100.389+147.931C96.3301+152.565+91.7171+156.677+86.9659+160.583C81.1373+165.092+74.5099+168.501+67.5904+170.995C47.5928+177.85+24.458+174.611+7.34063+162.108C0.0672329+156.694-6.16598+149.891-11.2992+142.437C-15.0979+136.217-18.264+129.629-21.0435+122.898C-42.6242+64.3783-69.2157-16.2967-9.52355-61.817C-2.51797-66.6585+5.07468-70.7409+13.2004-73.3564C19.9188-75.3151+26.761-76.9503+33.73-77.7007C73.1451-78.3903+115.974-81.967+151.453-61.5388C200.442-32.3667+208.533+32.6731+195.184+83.5492C191.418+102.04+186.466+120.259+182.417+138.685C182.419+138.248+182.239+137.83+182.201+137.397C181.341+122.395+168.897+112.086+158.947+102.322C146.885+85.7762+124.892+84.8539+108.199+93.8066C159.071+53.5514+193.97-3.1087+241.609-46.9432C273.602-50.1504+306.262-37.3165+334.17-22.6517C341.187-16.7153+346.946-10.1385+346.471-0.391652C341.196+10.8427+335.509+21.9558+328.378+32.1474C290.47+73.6672+247.16+110.217+209.548+152.186C208.951+152.699+208.394+153.164+209.053+152.157C203.906+127.526+202.038+101.055+188.493+79.1982C180.906+69.5673+166.836+66.3759+155.045+67.187C155.863+67.0489+155.343+66.8732+155.652+66.7643C181.931+54.1006+216.413+65.1473+230.36+90.7871C252.834+126.939+224.233+175.608+183.321+179.968C166.125+183.928+144.995+181.549+132.129+168.809C117.09+147.142+114.1+119.547+112.64+93.9016C113.089+91.2082+113.539+88.5148+113.988+85.8215C153.153+39.333+197.991-2.61807+242.478-43.6548C247.455-41.1344+240.459-33.3498+241.964-30.4658C243.376-27.5603+244.788-24.6549+246.2-21.7494C249.623-18.4147+253.046-15.0801+256.469-11.7454C276.334+6.88112+309.273+11.7418+322.836+36.537C265.902+88.6701+226.868+162.547+156.597+198.67C150.677+201.068+144.409+202.659+138.032+203.139C106.846+207.038+80.9657+179.939+68.8632+153.995C58.9638+111.551+86.7066+70.8804+84.1387+29.1858C86.3132+34.9515+91.7289+38.8749+97.5371+39.9275C80.3845+37.8146+62.9529+38.2935+45.738+37.8408C56.3735+34.0852+65.9178+25.8162+69.8284+15.0832C71.3878+38.1523+81.3413+60.2114+88.0747+82.2639C71.1528+57.9263+33.0234+52.4477+11.2176+73.1552C38.7144+33.8726+63.4828-7.81921+97.6488-41.9094C93.2241-35.5512+92.8064-26.3625+91.4734-18.7171C81.9984+13.0243+107.025+45.2852+138.553+48.981C128.832+49.0284+119.488+52.2298+110.827+56.4387C110.369+56.1311+108.214+60.2338+107.521+61.897C107.432+61.5884+108.024+59.7963+107.75+61.5576C94.2454+113.79+99.9052+168.254+105.771+221.118C106.671+268.475+90.3786+313.463+82.2515+359.337C74.5217+324.699+26.6368+305.963-2.07326+328.034C-7.57681+331.93-14.7621+334.13-19.502+339.005C-6.84884+305.974-1.68484+269.11+20.1982+240.38C23.2645+240.125+26.3308+239.869+29.397+239.614C63.623+250.442+92.728+273.575+120.744+295.292C113.89+316.552+112.941+339.24+114.614+361.353C104.406+324.306+47.6456+313.612+23.7877+342.809C57.0252+260.19+74.0438+166.06+138.586+100.444C144.25+95.1088+150.759+90.7727+157.537+86.9883C166.27+82.9909+175.923+81.6814+185.368+80.5748C198.704+82.5098+208.473+93.1864+217.189+102.36C228.131+117.034+242.856+131.051+246.546+149.758C245.041+156.478+243.223+163.145+240.745+169.577C217.148+222.567+198.824+278.207+192.132+336.015C191.749+336.747+191.494+343.056+190.849+341.941C190.849+341.462+190.848+340.983+190.848+340.505C170.2+326.819+148.112+314.55+124.652+306.377C120.228+305.623+115.803+304.87+111.379+304.117C99.467+301.831+94.8377+314.297+85.714+318.373C109.539+259.23+124.73+192.871+170.509+145.754C200.894+134.053+247.484+132.637+259.545+170.651C263.522+179.101+268.432+187.539+269.677+196.978C267.668+213.309+260.512+228.974+262.078+245.692C258.435+234.53+247.073+228.476+236.814+224.382C213.709+210.598+182.246+217.521+166.481+238.702C171.558+225.279+175.764+211.566+180.236+197.939C215.033+204.918+243.195+229.83+276.516+241.376C278.98+241.965+281.444+242.555+283.907+243.144C284.995+241.79+285.917+240.281+287.163+239.056C287.534+239.401+286.453+240.823+286.917+240.269C283.466+252.17+281.846+264.541+278.807+276.524C277.915+275.127+278.929+273.181+278.358+271.742C242.166+259.267+202.289+265.026+165.634+254.4C173.292+222.57+183.656+189.89+206.52+165.52" opacity="1" fill="#f9f9f9"/>
<path d="M275.916+177.763C297.968+154.128+339.453+154.891+360.54+179.42C383.095+202.874+379.505+243.757+354.446+264.036C345.675+273.085+336.65+281.893+327.06+290.079C310.849+304.137+294.157+317.626+277.742+331.443C257.696+348.301+238.032+365.705+219.779+384.509C219.328+384.969+218.871+385.424+218.411+385.876C210.193+364.891+210.384+341.378+199.814+321.198C191.864+301.238+168.259+301.436+150.663+302.175C187.266+277.78+221.192+246.78+263.814+233.34C284.309+232.162+310.152+233.442+321.338+253.968C323.697+258.775+326.055+263.583+328.414+268.39C330.208+274.527+332.001+280.664+333.794+286.801C336.343+298.909+339.402+312.274+334.651+324.347C330.217+330.777+325.35+336.925+319.908+342.536C267.676+385.841+213.053+426.947+156.41+464.295C133.349+462.177+115.724+443.966+97.174+432.193C86.7308+422.694+72.154+412.882+70.4786+397.308C73.9772+379.488+84.8062+365.073+95.1721+350.79C89.2191+382.133+119.762+414.995+151.508+411.196C149.693+412.605+147.396+413.41+145.503+414.769C145.906+413.361+147.023+412.34+147.754+411.11C165.818+395.233+156.53+368.828+150.685+349.493C147.151+332.289+135.993+316.201+117.651+314.347C203.159+304.157+286.612+279.636+372.295+270.879C381.515+270.502+390.809+270.544+399.939+272.032C410.052+273.628+419.749+277.291+428.802+282.006C441.4+290.537+452.564+302.164+458.406+316.394C478.362+371.824+425.134+414.23+385.945+442.963C400.28+427.194+380.024+408.819+370.55+396.474C360.326+385.393+350.108+374.308+339.952+363.165C335.681+358.397+331.325+353.705+327.211+348.799C348.966+336.998+370.124+323.75+393.099+314.308C405.795+323.009+409.58+339.671+417.542+351.765C425.258+374.083+443.392+396.179+440.677+421.065C438.994+421.671+437.31+422.277+435.627+422.884C393.064+438.456+341.377+419.487+319.744+379.42C296.563+338.151+303.531+288.186+318.55+245.386C322.534+232.415+325.597+219.091+330.499+206.439C328.675+229.132+344.318+252.513+366.614+258.144C328.993+265.548+279.861+256.067+269.983+212.462C268.315+206.731+267.11+200.916+266.703+194.953C266.138+154.21+305.331+131.803+320.575+97.5725C309.661+131.167+343.925+169.204+378.489+163.388C352.521+174.023+327.504+190.569+298.491+190.601C265.666+187.459+239.295+159.652+238.03+126.593C237.009+118.19+240.018+110.05+242.775+102.288C262.058+64.2102+297.398+37.9741+325.908+7.21829C324.373+10.669+323.036+14.6084+321.883+18.1992C321.686+15.2056+322.182+12.1918+322.834+9.276C321.707+44.9805+358.369+73.5432+392.752+69.7423C380.058+76.3724+366.899+82.1643+354.407+89.1799C354.709+88.719+355.238+88.4897+355.632+88.123C356.289+59.2288+360.534+28.3458+348.675+1.07633C339.562-11.7676+320.11-15.4415+305.284-11.715C330.908-25.7417+359.777-43.8446+389.913-32.0077C396.266-28.9904+401.976-24.9841+407.391-20.5241C437.538-0.570305+441.722+44.3268+420.317+71.7887C403.962+92.9723+372.325+99.844+348.656+87.354C325.068+76.0139+312.324+47.8958+317.787+22.5419C319.305+23.5206+319.315+32.7503+320.299+35.5439C331.786+59.2617+356.63+82.6149+384.916+77.4568C361.843+90.2061+335.897+108.233+308.394+97.2584C305.03+96.1861+301.666+95.1138+298.301+94.0415C295.753+91.3359+293.205+88.6302+290.657+85.9246C281.597+69.624+282.308+50.1188+282.41+32.1741C283.33+19.8623+281.671+6.66465+286.426-5.12411C310.23-20.2144+335.627-33.8088+362.601-42.1539C395.477-44.8801+429.401-25.7228+436.73+7.98067C447.882+71.7906+381.335+109.709+346.297+153.736C356.202+136.528+348.427+115.121+338.787+99.3744C327.432+85.236+308.554+74.2465+289.984+75.8039C289.59+75.9471+289.071+75.7544+288.742+76.0689C293.855+73.9073+298.891+71.5657+303.955+69.2924C309.219+66.8977+314.47+64.4765+319.714+62.04C354.641+41.0655+407.366+44.5095+426.767+84.9223C450.376+135.407+405.081+182.75+376.009+219.749C375.591+219.907+375.489+220.677+374.987+220.674C388.328+190.743+368.882+149.485+335.636+144.181C377.824+135.043+433.643+149.023+443.778+197.215C453.056+241.49+419.706+282.059+421.27+324.171C418.266+315.491+406.431+309.857+398.627+312.866C411.567+349.191+427.356+384.836+436.1+422.456C412.748+432.783+391.957+448.229+368.161+457.57C338.357+440.796+312.347+413.954+296.141+383.761C295.848+380.485+295.555+377.209+295.262+373.934C309.582+350.328+335.315+337.948+353.442+317.947C343.976+336.729+347.845+361.427+364.3+375.39C369.758+381.16+375.539+387.04+383.26+386.617C296.189+396.56+211.255+422.138+123.921+430.513C117.248+430.546+110.444+430.903+103.909+429.276C95.2026+426.197+84.4614+425.162+79.2457+416.307C74.1991+408.86+70.8008+400.605+67.6979+392.206C65.9851+386.338+64.2723+380.47+62.5595+374.602C60.0384+362.633+57.755+349.149+63.413+337.588C85.7029+306.091+129.861+288.405+167.018+302.014C222.172+323.793+216.196+397.044+179.185+432.156C185.671+415.387+162.909+405.769+153.745+395.945C137.117+384.764+121.304+370.567+104.018+360.947C149.198+326.532+195.707+293.748+240.244+258.5C238.199+264.033+235.14+273.75+238.671+280.911C242.105+295.707+244.762+311.072+252.674+324.331C255.157+327.502+257.641+330.673+260.124+333.845C268.665+343.351+283.664+341.212+293.764+345.627C261.866+363.108+232.554+390.698+198.988+407.646C196.749+408.093+194.51+408.54+192.271+408.987C185.599+409.607+178.917+409.451+172.233+409.128C141.691+412.589+130.27+376.396+128.092+352.65C126.664+340.471+122.93+327.767+125.842+315.448C169.667+263.143+228.507+226.358+275.916+177.763" opacity="1" fill="#f9f9f9"/>
</g>
<g id="Layer 2" vectornator:layerName="Layer 2">
<path d="M363.636+304.545L236.364+304.545L236.364+122.727C236.364+112.727+244.545+104.545+254.545+104.545L327.273+104.545C332.727+104.545+338.182+107.273+341.818+111.818L396.364+181.818C399.091+185.455+400+189.091+400+192.727L400+268.182C400+288.182+383.636+304.545+363.636+304.545Z" opacity="1" fill="#f7d715"/>
<path d="M36.3636+304.545L236.364+304.545L236.364+86.3636C236.364+66.3636+220+50+200+50L45.4545+50C20+50+1.77188e-06+70+1.77188e-06+95.4545L1.77188e-06+268.182C1.77188e-06+288.182+16.3636+304.545+36.3636+304.545Z" opacity="1" fill="#e91f26"/>
<path d="M318.182+259.091C293.078+259.091+272.727+279.442+272.727+304.545C272.727+329.649+293.078+350+318.182+350C343.286+350+363.636+329.649+363.636+304.545C363.636+279.442+343.286+259.091+318.182+259.091ZM109.091+259.091C83.9871+259.091+63.6364+279.442+63.6364+304.545C63.6364+329.649+83.9871+350+109.091+350C134.195+350+154.545+329.649+154.545+304.545C154.545+279.442+134.195+259.091+109.091+259.091Z" opacity="1" fill="#124964"/>
<path d="M318.182+281.818C305.63+281.818+295.455+291.994+295.455+304.545C295.455+317.097+305.63+327.273+318.182+327.273C330.734+327.273+340.909+317.097+340.909+304.545C340.909+291.994+330.734+281.818+318.182+281.818ZM109.091+281.818C96.539+281.818+86.3636+291.994+86.3636+304.545C86.3636+317.097+96.539+327.273+109.091+327.273C121.643+327.273+131.818+317.097+131.818+304.545C131.818+291.994+121.643+281.818+109.091+281.818Z" opacity="1" fill="#ffffff"/>
<path d="M363.636+213.636L330.909+213.636C328.182+213.636+326.364+212.727+324.545+210.909L311.818+198.182C310+196.364+308.182+195.455+305.455+195.455L272.727+195.455C267.273+195.455+263.636+191.818+263.636+186.364L263.636+131.818C263.636+126.364+267.273+122.727+272.727+122.727L322.727+122.727C325.455+122.727+328.182+123.636+330+126.364L370.909+175.455C371.818+177.273+372.727+179.091+372.727+180.909L372.727+204.545C372.727+210+369.091+213.636+363.636+213.636Z" opacity="1" fill="#194468"/>
<path d="M118.182+77.2727C72.7273+77.2727+36.3636+113.636+36.3636+159.091C36.3636+204.545+72.7273+240.909+118.182+240.909C163.636+240.909+200+204.545+200+159.091C200+113.636+163.636+77.2727+118.182+77.2727ZM118.182+168.182C112.727+168.182+109.091+164.545+109.091+159.091C109.091+153.636+112.727+150+118.182+150C123.636+150+127.273+153.636+127.273+159.091C127.273+164.545+123.636+168.182+118.182+168.182Z" opacity="1" fill="#ffffff"/>
<path d="M135.455+163.636C135.455+161.818+136.364+160.909+136.364+159.091C136.364+152.727+132.727+146.364+127.273+143.636L127.273+95.4545L109.091+95.4545L109.091+143.636C103.636+146.364+100+152.727+100+159.091C100+169.091+108.182+177.273+118.182+177.273C120+177.273+120.909+177.273+122.727+176.364L143.636+197.273L156.364+184.545L135.455+163.636ZM118.182+168.182C112.727+168.182+109.091+164.545+109.091+159.091C109.091+153.636+112.727+150+118.182+150C123.636+150+127.273+153.636+127.273+159.091C127.273+164.545+123.636+168.182+118.182+168.182Z" opacity="1" fill="#37474f"/>
</g>
</svg>
